<?xml version="1.0" encoding="utf-8"?>
<!-- Generator: Adobe Illustrator 25.1.0, SVG Export Plug-In . SVG Version: 6.00 Build 0)  -->
<svg version="1.1" id="Calque_1" xmlns="http://www.w3.org/2000/svg" xmlns:xlink="http://www.w3.org/1999/xlink" x="0px" y="0px"
	 viewBox="0 0 707.6 200.1" style="enable-background:new 0 0 707.6 200.1;" xml:space="preserve">
<style type="text/css">
	.st0{fill:#FFFFFF;}
</style>
<g>
	<path class="st0" d="M63.9,181.8c0,4,1.8,5.3,4.5,5.3h24c59,0,80.4-45.2,80.4-90.5S150,7.4,100.2,7.4H67.6c-3.3,0-3.6,2.8-3.6,4.1
		L63.9,181.8z M7.5,3.9h90.3c77.7,0,108,45.7,108,93.9c0,49.1-39,92.8-113.1,92.8c-53.4,0-85.1,0-85.1,0c-1.5,0-2.2-1-2.2-1.8
		c0-1,0.9-1.8,2.4-1.8h15.9c4.9,0,8.2-2.9,8.2-8.5V16.1c0-4-2-8.5-8.5-8.5H7.2C6,7.6,5.3,6.7,5.3,5.8S5.6,3.9,7.5,3.9"/>
	<path class="st0" d="M214.8,3.8c-1.5,0-2.7,0.5-2.7,1.8c0,1.1,0.7,1.8,2,1.8H230c3.7,0,7.2,2.5,7.2,9.5v161.7c0,3.3-2.5,8.4-7,8.4
		h-15.8c-1.8,0-2,1.4-2,2s-0.1,1.5,2,1.5H291c1.1,0,2.7-0.2,2.7-1.3s-0.3-2.2-2.3-2.2h-14.8c-2.1,0-7.9-1.3-7.9-7.7V15.1
		c0-4.7,2.9-7.8,8.3-7.8h14.5c1.3,0,1.9-0.7,1.9-1.7c0-0.9-0.7-1.8-2.3-1.8C291.1,3.8,214.8,3.8,214.8,3.8z"/>
	<path class="st0" d="M400.9,194.6c61.6,0,100.5-43.6,100.5-97.3S462.8,0,400.9,0c-62,0-100.5,43.6-100.5,97.3
		S340.5,194.6,400.9,194.6 M334.5,97.3c0-51.6,23.1-93.5,66.4-93.5c42.4,0,66.4,41.8,66.4,93.5s-21.8,93.5-66.4,93.5
		C357.5,190.7,334.5,148.9,334.5,97.3"/>
	<path class="st0" d="M573,7.4h11.6c19.9,0,52.3,7.8,52.3,45.5c0,34.6-28.8,46.3-55.3,46.3h-17v-84C564.7,10.5,567.6,7.4,573,7.4
		 M698.3,189.4c-24.2,2.6-37.5-37.2-49.8-56c-9.1-13.9-28.5-28.2-47.8-30.9c31.5-1.8,66.9-11.9,66.9-47.7c0-29-17.8-51-83.4-51
		h-75.6c-1,0-1.9,0.5-1.9,1.8c0,1.1,0.9,1.8,1.9,1.8H526c3.7,0,7.2,2.5,7.2,9.5v161.7c0,3.3-2.5,8.4-7,8.4H509c-1.4,0-2,1.2-2,1.8
		s0.5,1.8,2,1.8h80.2c1.1,0,2.1-0.6,2.1-1.7c0-1.1-0.7-1.8-2.3-1.8h-16.2c-2.1,0-7.9-1.3-7.9-7.8v-76.4h8.3
		c39.7,0,42.6,43,62.3,67.6c16.9,21.1,38.9,23.8,51.4,23.8c5.3,0,9.1-0.2,12.4-1C701.6,192.7,702.1,189,698.3,189.4"/>
</g>
</svg>
