<?xml version="1.0" encoding="utf-8"?>
<!-- Generator: Adobe Illustrator 25.1.0, SVG Export Plug-In . SVG Version: 6.00 Build 0)  -->
<svg version="1.1" id="Layer_1" xmlns="http://www.w3.org/2000/svg" xmlns:xlink="http://www.w3.org/1999/xlink" x="0px" y="0px"
	 viewBox="0 0 215.4 94.1" style="enable-background:new 0 0 215.4 94.1;" xml:space="preserve">
<style type="text/css">
	.st0{fill:#FFFFFF;}
</style>
<g transform="matrix(1, 0, 0, 1, 0, 0)">
	<path class="st0" d="M115.9,67.1l14.2-2.1c0.6,8.8,4.1,13.2,8.9,13.2c5.2,0,8.6-2.8,8.6-8c0-17.3-30.3-21.9-30.3-46.9
		c0-13.9,8.4-21.8,23-21.8c12.1,0,19.3,8.8,20.6,21.2l-14.2,1.6c-0.6-7.5-4.6-9.7-7.9-9.7c-4.8,0-7.4,3.1-7.4,8.6
		c0,14.9,30.3,22,30.3,45.7c0,14.4-9.6,22.4-23.5,22.4C124.4,91.3,116.5,80.1,115.9,67.1z M60.8,68.9v-45c0-12.3,7.2-22.4,22.8-22.4
		s22.8,10,22.8,22.4v45c0,12.3-7.2,22.4-22.8,22.4S60.8,81.2,60.8,68.9z M75.7,24.3v44.2c0,6.5,1.9,9.7,7.9,9.7s7.9-3.1,7.9-9.7
		V24.3c0-6.5-1.9-9.7-7.9-9.7S75.7,17.8,75.7,24.3L75.7,24.3z M171.6,90V2.8h39.9v13.1h-25v22.5h19.2v13.1h-19.2V77h26.6V90H171.6z
		 M34.9,90l-19-54.5h-0.2V90H2.3V2.8h13.8l18.1,49.9h0.2V2.8h13.4V90H34.9z"/>
</g>
</svg>
